<svg width="500" height="400" viewBox="0 0 500 400" xmlns="http://www.w3.org/2000/svg">
  <!-- Fundo -->
  <rect x="50" y="50" width="400" height="300" rx="20" fill="#ecfdf0" opacity="0.5"/>
  
  <!-- Lata de lixo -->
  <rect x="180" y="150" width="140" height="180" rx="10" fill="#22c55e" opacity="0.8"/>
  <rect x="190" y="160" width="120" height="160" rx="6" fill="#f0fdf4"/>
  
  <!-- Tampa da lata -->
  <rect x="170" y="140" width="160" height="20" rx="5" fill="#22c55e"/>
  
  <!-- Símbolo 404 -->
  <text x="250" y="230" font-family="Inter, sans-serif" font-size="40" font-weight="bold" text-anchor="middle" fill="#22c55e">404</text>
  
  
  <!-- Ícone de página não encontrada -->
  <g transform="translate(120, 100) scale(0.8)">
    <rect x="40" y="40" width="80" height="100" rx="5" fill="white" stroke="#22c55e" stroke-width="3"/>
    <line x1="55" y1="60" x2="105" y2="60" stroke="#22c55e" stroke-width="3" stroke-linecap="round"/>
    <line x1="55" y1="80" x2="105" y2="80" stroke="#22c55e" stroke-width="3" stroke-linecap="round"/>
    <line x1="55" y1="100" x2="85" y2="100" stroke="#22c55e" stroke-width="3" stroke-linecap="round"/>
  </g>
  
  <!-- Símbolo X na página -->
  <g transform="translate(320, 100) scale(0.8)">
    <rect x="40" y="40" width="80" height="100" rx="5" fill="white" stroke="#22c55e" stroke-width="3"/>
    <line x1="60" y1="60" x2="100" y2="100" stroke="#22c55e" stroke-width="4" stroke-linecap="round"/>
    <line x1="100" y1="60" x2="60" y2="100" stroke="#22c55e" stroke-width="4" stroke-linecap="round"/>
  </g>
</svg> 